<svg width="26" height="28" viewBox="0 0 26 28" fill="none" xmlns="http://www.w3.org/2000/svg">
<path d="M12.9499 0.918945C14.5728 0.918945 16.1293 1.6237 17.2769 2.87816C18.4245 4.13263 19.0692 5.83405 19.0692 7.60813C19.0692 9.38222 18.4245 11.0836 17.2769 12.3381C16.1293 13.5926 14.5728 14.2973 12.9499 14.2973C11.327 14.2973 9.77054 13.5926 8.62296 12.3381C7.47538 11.0836 6.83067 9.38222 6.83067 7.60813C6.83067 5.83405 7.47538 4.13263 8.62296 2.87816C9.77054 1.6237 11.327 0.918945 12.9499 0.918945ZM12.9499 17.6419C19.7117 17.6419 25.1884 20.6353 25.1884 24.3311V27.6757H0.711426V24.3311C0.711426 20.6353 6.18815 17.6419 12.9499 17.6419Z" fill="#707B85"/>
</svg>
